<svg style="fill:#000" height="206.484" width="213.2" xmlns="http://www.w3.org/2000/svg"><g fill="#fff" data-name="Grupo 7"><path d="M53.778 169.331c.557-1.36-.863-2.811-2.4-2.832-4.5-1.859-10.248-.412-15.027-.29-6.22.158-10.028-.757-14.374-4.3-.093-.225-.185-.445-.268-.687a19.64 19.64 0 0 1-.951-5.909 77.825 77.825 0 0 0 .326-9.8c-.174-4.011-.057-13.712 5.958-14.2a21.283 21.283 0 0 1 5.3.553c-.456 6.13-.981 12.275-1.7 18.373a2.568 2.568 0 0 0 1.275 2.211c6.26 4.437 9.554 1.644 16.728 1.449a3.366 3.366 0 0 0 1.649-.489 2.3 2.3 0 0 0 2.744-2c.894-5.5.615-11 .359-16.539.633-3.714 2.174-8.1 1.175-11.738-.986-3.577-5.062-6.869-8.51-9.933a94.751 94.751 0 0 0-3.76-3.77 2.984 2.984 0 0 0-2.566-.868 3.859 3.859 0 0 0-1.1-.27 73.43 73.43 0 0 0-13.28.481c-3.516.329-8.709.341-11.781 2.139-2.409 1.411-4.618 5.182-6.772 7.194a18.635 18.635 0 0 0-4.793 6.606 1.26 1.26 0 0 0-.072.477 1.569 1.569 0 0 0-.392.765c-.027.149-.058.3-.091.447a1.867 1.867 0 0 0 .165 1.219c.228 1.811.385 3.663.491 5.547a15.348 15.348 0 0 1 2.342.846c-.873 1.161-1.576 2.1-2.194 2.919.142 5.91-.12 11.986-.342 17.731a1.8 1.8 0 0 0-.173.378 69.866 69.866 0 0 0-1.47 21.716c.158.146.333.306.517.457-.159.092-.309.176-.454.263.085.927.183 1.855.3 2.78.628 4.911.682 13.826 4.329 17.7 4.68 4.966 13 7.159 19.557 7.97a69.827 69.827 0 0 0 12.253.466c.86-1.148 1.787-2.253 2.691-3.373.366.758.729 1.524 1.368 2.872 3.734-.917 7.119-3.009 10.952-3.685a2.019 2.019 0 0 0 1.643-1.681 2.858 2.858 0 0 0 .986-2.512c-.762-9.58 1.417-19.261-.638-28.683zm-2.047-41.011a4.43 4.43 0 0 1 .78.465 5.742 5.742 0 0 1-1.044.28c-.062.006-.161-.409-.241-.631.17-.044.369-.166.505-.114zm-7.034-2.284.11.335-.309-.041zm-13.248-8.4-.212.3-.113-.347zm-8.589 4.625c.1.12.2.243.3.367l-.364.3c-.1-.125-.281-.252-.272-.364s.216-.206.336-.305zm-19.616 4.4c-.119-.133-.34-.274-.332-.4s.238-.242.371-.364c.119.137.241.27.361.4l-.4.365zm-1.082 43.66-.323-.213.366-.128zm14.6-32.147-.044.417-.377-.25zm-6.671-19.236 2.9 1.4a36.493 36.493 0 0 1-4.4 2.138c-.45.158-1.23-.639-1.86-1 1.113-.834 2.224-1.675 3.364-2.534zm-3.214 66.179-.306-.37c.127-.1.262-.282.376-.268s.2.22.3.345c-.117.098-.243.195-.366.294zm2.078-12.275a5.936 5.936 0 0 1-1.022-.366c.13-.147.291-.431.393-.414a6.351 6.351 0 0 1 1.079.394c-.156.148-.326.409-.446.386zm1.544 14.631-.115-.357.321.042zm.1-49.06a4.025 4.025 0 0 1-.587-1.173c-.029-.226.386-.514.6-.777.151.329.3.662.447.977-.155.338-.307.658-.455.974zm.981 20.894a6.531 6.531 0 0 1 1.32-1.633l1.363 2.5a4.608 4.608 0 0 1-1.736.316c-.39-.069-1.041-.93-.944-1.182zm2.664 13.465c-.779-.108-1.564-.217-2.335-.336-.036.018-.071.035-.107.056 0 0 .088-.073.074-.058.014-.015-.074.058-.063.045.163-1 .316-1.975.468-2.961l.19-.213-.148.2-.042.012.042-.012c-.152.98-.309 1.958-.447 2.928h.021c.819-.4 1.628-.8 2.436-1.191-.029.511-.056 1.02-.086 1.531zm2.345 23.062.033-.369.362.22zm.062-47.311c-.142-.117-.413-.259-.4-.351a6.348 6.348 0 0 1 .337-1.011c.205.227.555.439.55.643.001.245-.308.48-.484.72zm5.731 49.933-2.607-3.427c.281-.207.56-.421.841-.633.839 1.154 1.684 2.3 2.491 3.48.015.024-.468.382-.722.581zm1.144-24.074c-.328.011-.663-.324-1-.5.318-.194.637-.535.961-.544s.666.31 1 .487c-.314.197-.63.546-.958.558zm5.327 16.623c-.128-.122-.375-.269-.356-.366a5.614 5.614 0 0 1 .337-.964c.192.22.512.434.5.628-.016.244-.305.469-.478.703zm2.513 9.854a4.819 4.819 0 0 1-.348-.905c-.02-.1.231-.25.362-.376a6.334 6.334 0 0 1 .382.94c.021.078-.258.224-.393.342zm12.208-1.678h-.408c-.661.034-1.327.07-1.987.1l.016-.019c.062-.273.11-.528.158-.786-.03.232-.065.463-.1.7a.5.5 0 0 1-.032.048l.032-.048c.637 0 1.277 0 1.91.007l.4-.022q-.339-1.474-.683-2.943-1.221-1.106-2.445-2.2l.058-.056c-.033.03-.058.056-.058.056-.048-.12-.081-.236-.131-.35l-.327-.262c.1.046.228.071.274.142a1.027 1.027 0 0 1 .053.12l.267.216 2.453 2.192-.144.144.144-.14a456.2 456.2 0 0 0 .575 3.082c.011-.006-.029.021-.022.02zm2.853-.309.121-.108-.117.108c-.033-.06-.063-.12-.1-.18a.77.77 0 0 1-.232-.117c-.059-.052-.008-.229-.007-.347.083.156.161.309.239.464.075.024.147.046.213.072.1.04.185.081.282.121-.129-.002-.261-.007-.396-.012z" data-name="Caminho 463"></path><path d="M86.237 110.912c-5.085-2.787-12.619-1.622-18.661-1.613a5.652 5.652 0 0 0-2.883.028 2.259 2.259 0 0 0-1.424 1.094c-.5.006-.988-.02-1.484.016a2.14 2.14 0 0 0-1.8 1.245 4 4 0 0 0-2.365 3.008c-1.056 4.577 1.206 9.335 1.7 13.856a1.517 1.517 0 0 0 .03.159c-.51 2.711 1.549 4.546 4.171 4.151 4.328-.648 7.59.741 11.825.94a33.655 33.655 0 0 0 11.92-1.7 3.234 3.234 0 0 0 2.383-3.132c-.508-4.227-.613-8.483-.948-12.722-.152-1.907-.606-4.311-2.464-5.33zm-.982 6.3c-.418-.242-.89-.518-1.36-.792.316-.213.659-.63.946-.591a5.792 5.792 0 0 1 1.5.63c-.309.219-.627.434-1.086.752z" data-name="Caminho 464"></path><path d="M87.752 144.456a3.056 3.056 0 0 0 1.005-1.228 2.517 2.517 0 0 0-2.8-3.65q-1.548.275-3.086.577a2.071 2.071 0 0 0-.969.48c-3.163.012-7.862-.461-9.733-.573a30.782 30.782 0 0 0-9.762.766 1.8 1.8 0 0 0-2.95.057c-1.9 3.074-1.168 6.6-.659 10.007a24.547 24.547 0 0 0 .576 2.682c-.239 7.526.465 10.163.659 17.714.21 8.067-.7 16.219-1 24.277-.547 14.609 17.228 7.424 26.237 9.47a2.792 2.792 0 0 0 3.459-2.638 50.35 50.35 0 0 0-.117-13.348c1.923-16.395 1.044-28.27-.86-44.593zm-27.779 4.634a.008.008 0 0 1 .006.007l-.006-.007a4.588 4.588 0 0 0-.128-.115 65.274 65.274 0 0 0-.592-.577l.6.574.253-.084a1.449 1.449 0 0 0-.133.202z" data-name="Caminho 465"></path><path d="M151.744 123.07c.24-3.863.573-7.7-.253-11.634a2.227 2.227 0 0 0-3.294-1.421 3.63 3.63 0 0 0-1.918-.712c-7.45-.585-15.22-.9-22.741-1.135-5.5-.17-11 .789-16.5 1.65a90.288 90.288 0 0 0-1.444-.182c-3.556-.419-6.892.486-10.324 1.1-1.2-1.331-3.942-1.383-4.41.866-.992 4.733 1.017 9.872 1.062 14.65.071 7.2-.322 14.039 1.475 21.083a1.634 1.634 0 0 0 1.991 1.129.3.3 0 0 0 .03-.01 1.856 1.856 0 0 0 .792.225q9.174.479 18.367.777a24.27 24.27 0 0 0-.052 2.18c-.242 5.9-.518 11.806-.621 17.707a57.033 57.033 0 0 0-.374 7.184 2.849 2.849 0 0 0 .39 1.43c.262 8.354 1.144 16.694.674 25.066a2.467 2.467 0 0 0 2.479 2.481c.275-.035.518-.072.75-.11a2.317 2.317 0 0 0 2.328.255c1.072-.336 2.1-.7 3.138-1a9.627 9.627 0 0 0 7.334-.76c1.528-.7 1.515-3.077.31-4.061.06-.346.14-.673.177-1.048.279-2.926-.286-6.043-.276-8.987.014-4.009.821-9.418-.7-13.3.414-8.927 1.1-17.891.8-26.789a107.28 107.28 0 0 1 17.514 1.042 2.067 2.067 0 0 0 2.507-1.423 73.669 73.669 0 0 0 1.37-15.608c-.022-2.341.812-4.756.407-7.083-.119-.69-.528-2.023-.988-3.562zm-53.511 24.172-.145-.432.4.053zm9.4-20.785a9.655 9.655 0 0 1-2.477.385l-.1.09c-.119-.141-.357-.3-.337-.424a5.448 5.448 0 0 1 .332-.977l.117.091 2.338-1.036c.056.647.306 1.798.125 1.868zm2.652 3.054c-.524-.36-1.309-.713-1.272-.906.1-.5.611-1.342.858-1.311.558.08 1.054.6 1.574.941-.341.377-.695.758-1.162 1.273zm12.208 8.694.2-.4.171.421zm20.286-7.769c.139-.26.285-.522.423-.785-.1.3-.207.6-.311.906l-.046-.049a.83.83 0 0 1 .043.049 2.582 2.582 0 0 1-.143.1.738.738 0 0 1-.079.275c-.044.071-.248.041-.38.056.154-.108.307-.22.459-.331a2.054 2.054 0 0 1 .032-.224zm.154 3.446a5.47 5.47 0 0 1-.963-.43c.133-.136.316-.412.4-.384a6.041 6.041 0 0 1 .992.458c-.145.123-.329.383-.431.353zm5.3 8.444a77.08 77.08 0 0 1-.265-.577l.455.176c-.064.131-.127.265-.191.398zm1.778-16.5c-.333-.075-.608-.4-.908-.627l.769-.482c.29.2.577.407.865.611-.246.176-.533.542-.727.495z" data-name="Caminho 466"></path><path d="M211.033 122.503a87.635 87.635 0 0 0 .2-11.479 2.189 2.189 0 0 0-2.161-2.163c-.668.031-1.341.078-2.005.122a1.99 1.99 0 0 0-.915-.2c-2.735.052-5.4-.284-8.137-.043a1.718 1.718 0 0 0-1.256 2.729c-1.082 3.643-.548 7.794-.3 11.624-.047-.121.146-.331.228-.5.261.135.524.269.786.407-.171.3-.339.588-.508.884a4.03 4.03 0 0 1-.506-.787c.036.534.064 1.063.082 1.583.218 6.07-.345 12.127-.349 18.193a.086.086 0 0 1 .009.032l.254.026s-.213.072-.215.08v.01l-.05-.054c0 .195-.005.387-.005.578-1.139-.023-2.3-.119-3.385-.176a28.315 28.315 0 0 1-4.3-.642c-1.838-3.631-1.15-9.294-1.136-12.763a169.919 169.919 0 0 0-.458-17.685c0-.032-.02-.053-.026-.086a4.146 4.146 0 0 0 .351-1.1 1.832 1.832 0 0 0-1.259-2.218 37.869 37.869 0 0 0-17.194.209 2.345 2.345 0 0 0-.995.534 50.281 50.281 0 0 0-10.7-.017 1.552 1.552 0 0 0-1.182 1.87c-3.179 5.709-.891 13.766-.262 20 .843 8.338-1.761 16.275 1.331 24.293 1.98 5.122 10.771 5.857 15.2 7.4 3.382 1.177 8.093.759 11.634 1.008 2.588.179 5.058.594 7.527.929-.054.612-.12 1.219-.164 1.839-.043.589-.1 1.208-.143 1.842-7.209-.168-14.5 1.737-21.714 1.676-2.555-.023-11.348-1.015-12.479 2.884a34.035 34.035 0 0 0-1.127 8.492.533.533 0 0 0-.3.541c.12 1 .208 2.013.306 3.022.035 1.137.085 2.253.154 3.323.209 3.433-.136 7.344.988 10.675.083 1 .164 2.006.262 3.007a1.493 1.493 0 0 0 1.458 1.457c16 .876 32.506 1.177 48.607 1.1a3.08 3.08 0 0 0 2.862-1.675 2.259 2.259 0 0 0 .913-1.928c-.308-26.182 3.139-52.695.079-78.853zm-52.873 2.414a24.087 24.087 0 0 1-1.964 2.387c.143-1.343.045-1.867.263-2.149a8.884 8.884 0 0 1 1.451-1.261c.094.348.376.807.25 1.023zm2.456 17.636c-.164-.148-.332-.3-.5-.457.112-.1.229-.29.336-.286s.214.2.318.31zm.865-23.1c-.351-.031-.995-.909-.9-1.124a8.312 8.312 0 0 1 1.377-1.721c.495.56.994 1.12 1.918 2.169a8.216 8.216 0 0 1-2.395.679zm3.933 13.264a4.758 4.758 0 0 1-.349-.908c-.024-.109.216-.27.322-.384.164.153.427.305.407.393a5.328 5.328 0 0 1-.38.902zm1.452-3.6c-.164.021-.393-.356-.557-.577-.016-.02.253-.352.344-.331a6.38 6.38 0 0 1 1 .378c-.266.201-.509.494-.787.533zm10.677 19.279c-.124-.129-.376-.3-.349-.376a5.5 5.5 0 0 1 .482-.861c.116.138.233.271.35.4-.16.283-.322.563-.483.84zm11.813-2.539c-.117-.014-.213-.188-.316-.29.245.041.495.083.741.126-.142.067-.295.185-.425.167zm-30.222 48.7.214-.3.108.349zm3.279 5.606c0 .009-.021.131-.021.131l.024-.122-.323 2.746c-.29-.156-.584-.315-.875-.469q.59-1.078 1.174-2.155c0-.051.008-.1.008-.152a1.02 1.02 0 0 1-.191-.377c-.008-.083.143-.182.223-.271-.012.215-.021.433-.032.648.004.012.011.021.013.026zm9.165-26.558-.047.295-.286-.2zm-.286 8.8.241-.362.13.413zm22.349-33.9c-.2.038-.664-.343-.674-.552-.008-.272.319-.555.5-.836l.813.675c-.221.264-.396.663-.639.712zm1.03 19.374-.286-.194.326-.117zm14.2-36.306c-.57-.072-1.542-.935-1.472-1.288a6.96 6.96 0 0 1 1.328-2.152c.468.542.94 1.08 1.647 1.9-.612.66-1.121 1.588-1.504 1.539z" data-name="Caminho 467"></path><g data-name="Grupo 6"><path d="M55.187 63.372c1.877-8.536.011-17.53-.344-26.138-.409-9.845-1.543-20.972-.189-30.723a2.693 2.693 0 0 0-1.906-3.243c-4.233-3.759-16.266.023-20.473-.249-4.866-.316-18.906-2.157-16.931 6.656a1.007 1.007 0 0 0 .055.121c-.417 7.1-.2 14.263.081 21.372a15.665 15.665 0 0 0-.61 4.008 3.009 3.009 0 0 0 3.005 3.006c3.732-.252 7.517-.418 11.278-.72.112-.187.229-.377.344-.567.28.154.564.309.849.467 2-.179 3.989-.393 5.961-.692a1.377 1.377 0 0 0 .251-.091.523.523 0 0 0 .077.015c.965 2.195 1.381 10.265 1.577 18.983a58.029 58.029 0 0 0-.383 11.741 33.486 33.486 0 0 0-1.024 3.482c-1.346 5.16-7.824 6.41-9.121-.192-.073-.053-.15-.1-.23-.148.077.036.151.07.221.1a13.058 13.058 0 0 1-.2-1.671c-.288-5.592 1.806-11 1.416-16.663a2.266 2.266 0 0 0-1.611-2.121 49.233 49.233 0 0 1-5.217-1.864 2.029 2.029 0 0 0-2.843 1.5 20.987 20.987 0 0 0-3.353-.512c-.7-.041-1.389-.043-2.075-.029.191.1.388.2.587.3-.393.274-.822.8-1.169.758-.471-.065-.875-.577-1.311-.9.056-.025.115-.054.171-.084-3.463.245-6.869.94-10.368 1.249a1.721 1.721 0 0 0-1.7 1.7C.502 59.86.542 67.347.484 75c-.027 3.118-.519 6.852.031 10.155-2.079 18.286 31.225 10.775 41.484 9.158 15.147-2.386 10.815-20.147 13.188-30.941zM48.362 88.7l.148.482-.379-.051zM43.02 55.923c.866.717 1.629 1.072 1.617 1.4a6.4 6.4 0 0 1-.749 1.972c-.437-.288-1.184-.522-1.246-.879a8.723 8.723 0 0 1 .378-2.493zm-23.916-26.71a7.732 7.732 0 0 1-1.832-1.881c.637-.4 1.287-1.109 1.912-1.093.564.02 1.1.847 1.927 1.557-.897.659-1.724 1.563-2.007 1.417zm1.933-19.574a4.493 4.493 0 0 1-1.152-.807c-.1-.127.27-.629.427-.964l1.366.658c-.283.495-.464.805-.641 1.116zm1.6 8.373.211-.29.087.343zm6.21-7.523-.021.327-.326-.184zm-.891 3.3c-.034.182-.061.361-.091.545-.164.017-.383.111-.478.039-.112-.09-.119-.313-.174-.481zm.026 19.881c-.137.082-.49-.2-.751-.319.243-.426.489-.852.771-1.352.338.4.716.687.669.824a1.728 1.728 0 0 1-.687.851zm1.385-4.391c-.258-.151-.517-.308-.777-.464.121-.129.3-.388.353-.364a6.514 6.514 0 0 1 .832.493 9.98 9.98 0 0 1-.406.339zm2.617 5.131c-.106.113-.208.226-.311.34.066-.155.132-.313.2-.47.086-.1.17-.206.261-.311l.505-1.508.459.359c-.321.383-.642.768-.964 1.149l-.148.445zM16.279 86.972c-.709.864-1.411 1.726-2.115 2.588-.207-.292-.644-.782-.59-.841.7-.794 1.469-1.531 2.217-2.278l1.638-.368c-.383.305-.765.606-1.148.903zm15.067 2.5c-.117-.049-.332-.1-.332-.159a1.441 1.441 0 0 1 .133-.474c.114.054.332.106.332.165a1.535 1.535 0 0 1-.131.47z" data-name="Caminho 468"></path><path d="M212.312 8.142a4 4 0 0 0-.325-.623 2.748 2.748 0 0 0-1.492-2.715 18.79 18.79 0 0 0-6.1-1.281c-2.379-.279-4.636-.766-6.992-.1a2.683 2.683 0 0 0-.431.169c-3.685-.452-7.609.237-11.353.015a39.556 39.556 0 0 0-8.064.4c-2.336.334-3.847 1.8-5.922 2.721a2.779 2.779 0 0 0-1.289 3.165 36.525 36.525 0 0 1 .964 11.183q-.2 2.136-.52 4.262c-1.543 4.769-1.691 10.406-2.062 15.345-.025.326-.053.648-.088.969-.763-2.09-1.5-4.135-2.083-6.108-2.534-8.539-5.694-16.874-8.383-25.381a4.12 4.12 0 0 0-.036-1.067 28.205 28.205 0 0 1-.441-3.7 3.936 3.936 0 0 0-3.832-3.831 108.981 108.981 0 0 0-18.316.431c.021.028.041.052.061.075l-.43.231-.41-.165a.77.77 0 0 0 .092-.08c-2.845.27-5.672.58-8.439.871a.613.613 0 0 0-.86.118 1.939 1.939 0 0 0-1.6 2.43 5.89 5.89 0 0 0 .8 2.05c-3.456 22.815-.649 47.5-.429 70.394.047 4.644-2.495 15.406 1.261 19.038a10.654 10.654 0 0 0 8.77 2.858 3.407 3.407 0 0 0 2.351-.787 7.034 7.034 0 0 0 1.915-1.479 2.418 2.418 0 0 0-.252-3.287c1.341-8.146.311-16.844.962-25.04.857-10.789-.139-21.546-1-32.3-.483.191-.963.383-1.44.568-.125-.323-.415-.89-.354-.933a16.678 16.678 0 0 1 1.692-.919 89.88 89.88 0 0 0-.061-.773c.063.231.13.471.2.7l.521 1.134a2.757 2.757 0 0 0-.189.074c1.461 5.281 2.873 10.6 4.536 15.834a208.262 208.262 0 0 1 5.931 24.761c.894 4.793.859 16.048 4.414 19.6a.089.089 0 0 0 .023.028c.433-.4.861-.808 1.29-1.21.068-.131.134-.267.2-.4l.02.008a.108.108 0 0 1-.024-.013c-.007-.005.016-.347.016-.347l.126.431-.337.317-.823 1.646c4.448 3.975 8.728 1.454 13.578-.116a2.991 2.991 0 0 0 2.156-2.829c.015-3.807 3.69-10 4.57-13.871 1.158-5.1 1.659-10.38 2.572-15.534 1.384-7.789 2.358-15.674 3.919-23.419-.18 6.458-.451 12.907-1.032 19.32-1.027 11.289-3.011 23.272.443 34.305a3.009 3.009 0 0 0 2.91 2.215c8.262-1.034 18.285-2.106 26.462-1.075a1.551 1.551 0 0 0 1.771-1.183 1.977 1.977 0 0 0 1.246-2.39 17.554 17.554 0 0 1-.761-8.084 2.751 2.751 0 0 0 .961-1.975 54.689 54.689 0 0 0-.127-8.322c.007-11.425.682-22.855.316-34.282-.191-5.941-.863-11.763-.7-17.725.129-4.81 1.847-9.692-.052-14.322zm-79.161 12.817c-.284.218-.562.434-.843.651a2.4 2.4 0 0 1 .312-.4 3.137 3.137 0 0 1 .454-.293c.113-.034.22-.064.337-.1a4.956 4.956 0 0 1-.26.142zm2.419-3.613-.576.809c.149-.306.3-.61.455-.918.168-.294.333-.586.5-.876-.127.327-.256.655-.379.981zm1.565-7.948.248-.383.169.424zm3.852 33.136c-.118-.009-.225-.22-.337-.347.131-.107.262-.305.381-.3s.225.224.335.35c-.124.105-.262.305-.379.297zm2.94 12.1c-.057-.006-.094-.233-.137-.352.217.053.433.108.807.206a2.673 2.673 0 0 1-.67.142zm.7-17.771-.168-.433.36.016zm4.425 6.9a1.6 1.6 0 0 1-.461-.13c.055-.113.1-.323.156-.324a1.617 1.617 0 0 1 .461.125c-.052.108-.104.321-.157.325zm.3 32.754.244-.34.139.394zm1.37-26.72-.121-.347.33.044zm1.928 27.057a5.252 5.252 0 0 1-.99-.378c.214-.206.469-.6.637-.572.293.058.536.384.8.594-.152.124-.326.378-.448.352zm.6-20.728a5.022 5.022 0 0 1-.4-.879c-.026-.1.227-.262.348-.4.158.14.431.29.41.38a4.919 4.919 0 0 1-.359.895zm1.442-40.094c-.712-.759-1.388-1.557-2.067-2.346l-.265-.156.224.126.023.014-.025-.022 2.862 1.754c-.263.214-.74.64-.753.626zm6.975 14.07a3.807 3.807 0 0 1-.909-.739c-.117-.17.068-.541.122-.847.41.192.918.273 1.038.531s-.151.695-.252 1.051zm3.491 25.684.236-.345.141.392zm2.848-1.288-.421-.115c.048-.16.093-.321.145-.483.127.045.352.07.367.137a1.283 1.283 0 0 1-.093.457zm.961 16.008-.093-.321.285.044zm3.648-1.147c-.114-.143-.327-.292-.312-.419s.246-.237.383-.352c.116.139.229.28.341.419zm1.046-34.081c-.159-.028-.276-.236-.412-.365.176-.075.359-.223.524-.2.132.018.244.235.365.36-.162.069-.342.232-.478.201zm2.8-16.436.113.334-.324-.052zm-.137 15.149c-.113-.014-.2-.22-.3-.343.125-.1.258-.279.373-.265s.2.219.3.342c-.132.092-.268.276-.377.262zm3.909-12.492c.478-.273.958-.544 1.733-.992.638.726 1.227 1.4 1.819 2.077-.512.226-1.187.772-1.505.612a11.125 11.125 0 0 1-2.051-1.701zm.474 27.765.484.156c-.016.141.012.357-.063.408a1.5 1.5 0 0 1-.512.1c.029-.224.056-.446.088-.668zm.887 22.532c-.366-1.477-.661-2.967-.969-4.455-.031-.03-.068-.053-.1-.09.032.008.065.013.1.019.1-.319.208-.638.307-.958.367.256.729.514 1.1.77.313.46.875.914.89 1.384a18.577 18.577 0 0 1-.375 3.349 2.245 2.245 0 0 1-.957-.023zm1.1 4.1v.2a1.083 1.083 0 0 0-.1-.176h-.01v-.009a.025.025 0 0 0 .01-.012l.105-.121h.526a14.57 14.57 0 0 1-.533.119zm.012-33.418c-.261-.107-.36-.6-.532-.927.317-.068.711-.282.924-.165.31.17.489.582.73.9-.396.08-.83.312-1.124.193zm2.837 8.374a10.239 10.239 0 0 1-1.053-1.417c-.065-.118.344-.487.609-.837a7.254 7.254 0 0 1 1.256 1.274c.07.118-.527.642-.814.981zm.892-5.89c-.214-.428-.422-.852-.634-1.278.345-.122.767-.424 1.011-.316.262.117.353.62.52.954-.302.214-.602.427-.899.641zm.972-40.24-.3-.2.343-.116zm2.116 91.013c-.777-.27-1.354-1.149-2.012-1.769.687-.62 1.507-1.847 2.033-1.732.868.192 1.542 1.252 2.917 2.513-1.536.557-2.379 1.181-2.94.989zm3.791-36.087c-.1-.123-.293-.248-.281-.362s.21-.207.332-.313c.1.119.2.243.308.36-.121.109-.242.209-.361.316zM195.73 88.5l.254-.666c.055.174.112.351.165.526zm3.015-34.523q-.741-.837-1.484-1.671c.246-.169.5-.334.742-.5.338.635.678 1.267 1.015 1.9.255.345.5.691.757 1.034-.348-.256-.689-.511-1.032-.762zm1.659 6.025h-.525c.182-.041.36-.084.54-.123.006-.062.012-.124.021-.189a.957.957 0 0 0 .075.169h.007zm4.278 27.557a59.942 59.942 0 0 0-.814-.235 1.659 1.659 0 0 1 .434-.387c.092-.032.261.13.389.206-.011.139-.011.278-.011.417zm.351-9.728c-.262-.179-.762-.491-.749-.512.492-.868 1.02-1.717 1.545-2.563l.126-.483.007.009c.175 0 .34-.015.513-.028-.146.055-.289.109-.435.162-.073.113-.139.225-.211.34zm3.311 14.755c-.239-.628-.478-1.26-.715-1.889-.087-.084-.178-.164-.263-.248 0-.145.005-.294.006-.44l-.926-2.579c.331-.091.658-.185.987-.28l-.061 2.859c.041.107.079.216.12.324.046.123.089.243.137.363q.774.734 1.554 1.468c-.279.145-.56.285-.841.423zm.416-8.376c-.138.047-.528-.591-.8-.917l1.3-.967c.187.285.375.566.661 1a4.464 4.464 0 0 1-1.163.885zm2.229-7.259-.07-.248.1.31c.03.074.054.154.082.234-.034-.096-.075-.195-.114-.295z" data-name="Caminho 469"></path><path d="M118.094 78.253c-3.775-8.188-1.252-19.577-2.134-28.373-.9-8.971-.632-17.288-.5-26.244.094-6.637.159-14.222-2.7-20.287a3.024 3.024 0 0 0-4.448-1.418c-6.758-4.177-12.132-.353-19.572.144-8.073.537-16.358-3.053-24.171.171a2.483 2.483 0 0 0-1.792 2.35c.047.515.075.882.1 1.2a43.984 43.984 0 0 0-2.141 11.635l.035.064a.356.356 0 0 1-.043.023c-.432 6.973.224 14.161.322 20.884.216 14.2-2.138 28.958-3.091 43.158-.268 3.968-3.479 15.614 2.879 16.9 8.3 1.666 16.768-1.014 25.086-1.88a37.882 37.882 0 0 0 6.275-.093 2.15 2.15 0 0 0 3.089-1.909c-.39-4.224-.7-8.436-.749-12.679-.031-2.819-.771-7.557 3.274-7.672a41.667 41.667 0 0 1 4.466.1c-1.187 3.519-.236 7.684.894 11.748a24.091 24.091 0 0 0 1.95 10.262v.009c-.194 2.434 2.649 2.935 4.077 1.611a29.991 29.991 0 0 1 8.942-1.3 2.393 2.393 0 0 0 2.372-2.371c-.11-4.897-.36-11.569-2.42-16.033zM67.676 52.89a3.686 3.686 0 0 1 .669.478c.061.067-.06.448-.119.456a4.445 4.445 0 0 1-.8-.068c.078-.29.162-.576.25-.866zm-4.588 40.309c-.1-.431-.552-1.236-.321-1.563 1.692-2.408 3.467-4.771 5.387-7a2.723 2.723 0 0 1 2.229.752c.752 1.992-4.56 7.997-7.295 7.811zM75.175 66.76l.033-.294.3.183zm7.357-40.641c-.161-.308-.457-.621-.449-.919s.345-.565.549-.865c.164.316.465.632.45.925s-.353.573-.55.859zm4.851 55.326-.351-.22.388-.148zm1.151-2.475-.112-.37.337.054zm5.6-1.893-.186.075.276-.174a3.067 3.067 0 0 1-.086.099zm17.614-.924.129.348-.342-.039zM94.853 30.47c-.082-.413-.37-1-.2-1.209.3-.361.877-.483 1.338-.708.067.317.133.636.228 1.067-.431.273-.897.561-1.362.85zm7.512 29.7v3.018l-1.92 1.886h-4.739V53.49l.329-5.266 4.291-.194 1.683.916.356 3.407zm.128-13.177c-.207-.379-.415-.76-.619-1.14.347-.122.709-.365 1.032-.323.194.027.33.5.491.782-.293.236-.598.459-.9.684zm3.619-40.085a10.418 10.418 0 0 1-1.83-1.194c.324-.446.648-.891 1.179-1.616a10.082 10.082 0 0 1 1.533 1.756c.091.166-.741 1.115-.878 1.057zm3.473 87.561a3.809 3.809 0 0 1-.437-.765c-.032-.091.244-.406.314-.385a5.8 5.8 0 0 1 .942.452c-.29.252-.553.477-.815.701zm2.294-3.106c-1.537-.089-3.064-.331-5.049-.573.793-.7 1.415-1.659 1.864-1.585a26.817 26.817 0 0 1 4.143 1.326c-.316.298-.653.855-.954.835z" data-name="Caminho 470"></path></g></g></svg>