<svg height="47.458" width="205.436" xmlns="http://www.w3.org/2000/svg"><g fill="#1a2c3a" data-name="Grupo 40"><path d="M130.158 29.25c.264-.646-.412-1.334-1.14-1.344-2.137-.884-4.866-.2-7.134-.138-2.954.076-4.762-.36-6.827-2.04-.042-.107-.087-.213-.127-.328a9.24 9.24 0 0 1-.451-2.805 37.483 37.483 0 0 0 .156-4.657c-.084-1.9-.029-6.509 2.828-6.739a10.132 10.132 0 0 1 2.516.262c-.217 2.909-.467 5.83-.809 8.725a1.222 1.222 0 0 0 .6 1.051c2.974 2.105 4.539.781 7.944.687a1.619 1.619 0 0 0 .786-.231 1.088 1.088 0 0 0 1.3-.954 37.542 37.542 0 0 0 .171-7.852c.3-1.763 1.032-3.845.558-5.574-.467-1.7-2.4-3.262-4.041-4.717a46.974 46.974 0 0 0-1.784-1.788 1.411 1.411 0 0 0-1.219-.414 1.764 1.764 0 0 0-.527-.127 34.7 34.7 0 0 0-6.3.227c-1.669.156-4.136.162-5.6 1.015-1.142.671-2.191 2.462-3.214 3.418a8.854 8.854 0 0 0-2.277 3.136.592.592 0 0 0-.034.225.791.791 0 0 0-.186.365l-.042.212a.884.884 0 0 0 .077.579c.107.859.184 1.74.234 2.634a7.259 7.259 0 0 1 1.112.4c-.417.553-.749 1-1.042 1.387.066 2.805-.058 5.692-.162 8.421a.913.913 0 0 0-.083.179 33.171 33.171 0 0 0-.7 10.313c.075.069.158.144.245.216l-.216.126c.042.439.089.88.146 1.318.3 2.334.323 6.568 2.055 8.407 2.22 2.357 6.171 3.4 9.287 3.782a32.876 32.876 0 0 0 5.819.222c.407-.545.848-1.07 1.279-1.6l.649 1.362c1.772-.433 3.38-1.427 5.2-1.75a.949.949 0 0 0 .779-.795 1.35 1.35 0 0 0 .469-1.194c-.355-4.553.68-9.149-.295-13.622zm-.971-19.475a2.214 2.214 0 0 1 .369.221 2.75 2.75 0 0 1-.495.133c-.03 0-.078-.195-.116-.3.081-.023.176-.079.242-.057zm-3.342-1.084.052.159-.147-.02zm-6.29-3.991-.1.141-.055-.164zm-4.08 2.2.141.175-.171.141c-.048-.057-.135-.12-.129-.172s.103-.103.163-.151zm-9.314 2.092c-.057-.063-.161-.13-.158-.19s.113-.116.176-.173l.171.19zm-.515 20.734-.153-.1.173-.062zm6.933-15.276-.02.2-.179-.118zm-3.168-9.132c.616.3 1 .482 1.378.666A17.15 17.15 0 0 1 108.697 7c-.212.075-.583-.3-.883-.474zm-1.527 31.426-.144-.176c.06-.046.124-.133.18-.127s.1.1.145.164l-.179.139zm.99-5.828a2.681 2.681 0 0 1-.487-.176c.062-.069.139-.205.186-.2a3.182 3.182 0 0 1 .513.187c-.074.073-.155.198-.207.189zm.732 6.946-.056-.17.152.02zm.047-23.3a1.825 1.825 0 0 1-.277-.557c-.015-.108.181-.244.282-.368.072.155.142.314.211.463zm.466 9.921a3.116 3.116 0 0 1 .626-.773c.11.2.222.4.648 1.184a2.189 2.189 0 0 1-.826.15c-.188-.026-.488-.437-.446-.558zm1.264 6.4c-.37-.051-.742-.1-1.108-.158l-.051.025.035-.028c.007-.006-.035.028-.03.022.078-.472.15-.939.222-1.406l.092-.1-.071.1-.021.006.021-.006c-.072.465-.145.931-.213 1.39h.016l1.151-.568-.041.721zm1.115 10.952.016-.176.171.1zm.029-22.467c-.067-.056-.2-.123-.19-.166a3.158 3.158 0 0 1 .161-.481c.1.108.264.209.262.305-.001.115-.148.224-.231.34zm2.721 23.712-1.235-1.63.4-.3c.4.548.8 1.093 1.184 1.654.004.009-.226.179-.347.274zm.542-11.431c-.154 0-.313-.155-.471-.241.151-.092.3-.254.456-.259s.317.149.475.233c-.15.093-.301.259-.458.268zm2.53 7.892c-.06-.058-.178-.127-.17-.173a2.972 2.972 0 0 1 .161-.459c.09.1.243.208.237.3-.005.113-.143.22-.226.33zm1.195 4.681a2.359 2.359 0 0 1-.167-.43c-.008-.048.11-.12.173-.181a2.822 2.822 0 0 1 .18.447c.013.035-.122.107-.184.162zm5.8-.8h-.193l-.944.047.008-.009c.029-.129.052-.251.075-.374l-.046.331a.239.239 0 0 1-.015.023l.015-.021h.907a6.11 6.11 0 0 1 .191-.011c-.106-.465-.214-.932-.323-1.4-.388-.351-.773-.7-1.162-1.046l.027-.028a.394.394 0 0 0-.027.028c-.02-.057-.039-.114-.062-.167l-.154-.124c.044.021.107.032.128.069a.233.233 0 0 1 .026.055l.127.1 1.164 1.042-.067.069.067-.068c.091.489.181.976.274 1.464zm1.356-.146.055-.052-.055.052-.044-.085a.317.317 0 0 1-.11-.056c-.028-.024-.005-.108 0-.163l.113.219c.034.012.067.021.1.033l.135.058-.196-.007z" data-name="Caminho 947"></path><path d="M145.57 1.506c-2.415-1.323-5.992-.77-8.862-.766a2.691 2.691 0 0 0-1.368.013 1.07 1.07 0 0 0-.676.52c-.236 0-.468-.01-.7.008a1.01 1.01 0 0 0-.855.59 1.9 1.9 0 0 0-1.124 1.428c-.5 2.175.572 4.435.809 6.58 0 .029.012.049.014.077a1.636 1.636 0 0 0 1.98 1.971c2.055-.31 3.6.35 5.615.445a15.973 15.973 0 0 0 5.66-.808 1.538 1.538 0 0 0 1.133-1.486c-.242-2.009-.293-4.029-.452-6.042a3 3 0 0 0-1.174-2.53zm-.467 2.992-.645-.378c.15-.1.313-.3.449-.28a2.757 2.757 0 0 1 .715.3z" data-name="Caminho 948"></path><path d="M146.29 17.435a1.443 1.443 0 0 0 .476-.584 1.194 1.194 0 0 0-1.331-1.733c-.49.087-.977.177-1.467.274a.969.969 0 0 0-.461.228c-1.5.006-3.731-.219-4.618-.273a14.739 14.739 0 0 0-4.637.363.854.854 0 0 0-1.4.029c-.9 1.458-.554 3.135-.312 4.752a11.746 11.746 0 0 0 .274 1.274c-.113 3.573.22 4.825.312 8.412.1 3.829-.332 7.7-.478 11.527-.258 6.939 8.182 3.527 12.459 4.5a1.326 1.326 0 0 0 1.642-1.254 23.9 23.9 0 0 0-.055-6.336c.917-7.79.501-13.428-.404-21.179zm-13.191 2.2.006.006-.006-.006-.061-.055-.28-.273.285.271.119-.039a.682.682 0 0 0-.063.095z" data-name="Caminho 949"></path><path d="M176.679 7.279a20.209 20.209 0 0 0-.119-5.525 1.057 1.057 0 0 0-1.563-.675 1.724 1.724 0 0 0-.912-.337c-3.537-.279-7.227-.427-10.8-.539a42.668 42.668 0 0 0-7.836.782c-.228-.029-.456-.058-.686-.085a16.455 16.455 0 0 0-4.9.523 1.2 1.2 0 0 0-2.1.411c-.47 2.248.484 4.687.506 6.955.032 3.419-.153 6.669.7 10.013a.775.775 0 0 0 .944.536.028.028 0 0 0 .016 0 .858.858 0 0 0 .376.106q4.357.229 8.72.371c-.025.34-.028.686-.025 1.035-.113 2.8-.243 5.607-.294 8.408a27.177 27.177 0 0 0-.179 3.412 1.4 1.4 0 0 0 .185.68c.127 3.966.544 7.926.32 11.9a1.176 1.176 0 0 0 1.178 1.179c.13-.018.246-.033.357-.052a1.1 1.1 0 0 0 1.1.12c.509-.16 1-.333 1.49-.475a4.567 4.567 0 0 0 3.484-.36 1.2 1.2 0 0 0 .145-1.928c.031-.164.068-.318.086-.5.132-1.39-.136-2.869-.132-4.269.007-1.9.391-4.47-.33-6.313.2-4.24.522-8.5.378-12.722a50.721 50.721 0 0 1 8.316.5.986.986 0 0 0 1.193-.677 34.952 34.952 0 0 0 .648-7.412 20.766 20.766 0 0 0 .195-3.362c-.051-.337-.246-.968-.461-1.7zm-25.412 11.477-.068-.206.185.025zm4.462-9.869a4.578 4.578 0 0 1-1.175.181l-.047.043c-.057-.066-.169-.144-.159-.2a2.726 2.726 0 0 1 .157-.464l.053.043 1.111-.493c.026.31.145.853.06.89zm1.26 1.449c-.25-.17-.622-.339-.6-.429.048-.239.291-.639.407-.623.265.036.5.284.749.447zm5.8 4.128.093-.191.08.2zm9.633-3.689c.066-.124.135-.248.2-.371-.051.143-.1.284-.149.428l-.023-.023.023.023c-.023.018-.047.033-.069.05a.415.415 0 0 1-.038.132c-.02.032-.118.018-.181.026.074-.052.146-.106.219-.158a.656.656 0 0 1 .014-.107zm.074 1.638a2.674 2.674 0 0 1-.459-.2c.065-.066.15-.2.192-.183a2.976 2.976 0 0 1 .471.217c-.073.056-.159.18-.208.166zm2.517 4.009a22.97 22.97 0 0 1-.125-.275c.07.029.142.055.214.084a3.73 3.73 0 0 0-.093.191zm.844-7.835c-.158-.035-.289-.193-.432-.3.123-.075.244-.153.366-.229l.411.29c-.123.087-.257.26-.349.239z" data-name="Caminho 950"></path><path d="M204.831 7.01a42.143 42.143 0 0 0 .1-5.452 1.039 1.039 0 0 0-1.026-1.027c-.318.015-.637.036-.954.059a.913.913 0 0 0-.433-.1c-1.3.025-2.566-.136-3.865-.021a.817.817 0 0 0-.6 1.3 16.165 16.165 0 0 0-.142 5.519c-.021-.058.069-.158.109-.239l.372.193c-.08.141-.161.28-.242.419a1.951 1.951 0 0 1-.239-.373c.017.254.031.5.04.752.1 2.882-.164 5.759-.167 8.638l.006.013.119.014a.717.717 0 0 0-.1.04v.005l-.024-.026v.274c-.544-.011-1.1-.057-1.61-.084a13.639 13.639 0 0 1-2.041-.305c-.871-1.724-.543-4.413-.539-6.06a80.6 80.6 0 0 0-.216-8.4c0-.013-.01-.026-.012-.04a1.92 1.92 0 0 0 .165-.525.868.868 0 0 0-.6-1.052 17.957 17.957 0 0 0-8.165.1 1.115 1.115 0 0 0-.471.254 23.766 23.766 0 0 0-5.08-.006.732.732 0 0 0-.562.885c-1.508 2.712-.424 6.539-.124 9.5.4 3.956-.837 7.728.633 11.535.938 2.432 5.113 2.782 7.218 3.514 1.6.559 3.841.362 5.524.478 1.228.086 2.4.282 3.574.443-.025.289-.057.578-.077.871s-.047.576-.069.876c-3.424-.08-6.887.825-10.311.8-1.213-.011-5.389-.482-5.925 1.369a16.127 16.127 0 0 0-.536 4.032.253.253 0 0 0-.139.257c.056.478.1.956.145 1.435.015.541.04 1.07.072 1.579a19.894 19.894 0 0 0 .469 5.068c.041.477.078.954.124 1.429a.711.711 0 0 0 .693.692c7.6.415 15.436.559 23.082.522a1.468 1.468 0 0 0 1.361-.8 1.071 1.071 0 0 0 .43-.914c-.15-12.431 1.481-25.02.033-37.441zm-25.108 1.147a11.4 11.4 0 0 1-.933 1.133c.067-.637.022-.887.126-1.02a4.123 4.123 0 0 1 .689-.6c.044.165.174.38.118.487zm1.167 8.374-.238-.217c.054-.049.109-.138.159-.137s.1.1.152.147zm.41-10.968c-.169-.014-.473-.432-.426-.535a3.954 3.954 0 0 1 .653-.816c.234.266.471.531.911 1.03a3.954 3.954 0 0 1-1.138.321zm1.868 6.3a2.3 2.3 0 0 1-.167-.431c-.011-.052.1-.127.153-.182.077.072.2.146.193.187a2.291 2.291 0 0 1-.179.424zm.689-1.709c-.076.01-.187-.169-.265-.274-.007-.01.121-.169.164-.158a3.014 3.014 0 0 1 .476.181c-.128.09-.243.23-.375.247zm5.07 9.154c-.058-.061-.177-.144-.165-.179a2.693 2.693 0 0 1 .228-.408c.055.065.11.129.167.193-.078.129-.153.26-.23.392zm5.61-1.205c-.057-.008-.1-.089-.152-.138l.354.06c-.068.025-.14.085-.202.076zm-14.352 23.125.1-.141.05.165zm1.557 2.663-.009.061.011-.058c-.052.433-.1.87-.153 1.305l-.415-.222c.185-.342.37-.685.557-1.025v-.07a.519.519 0 0 1-.09-.181c0-.038.067-.086.106-.129l-.016.31zm4.354-12.612-.023.14-.136-.094zm-.136 4.176.115-.171.061.2zm10.612-16.1c-.094.019-.316-.162-.32-.261-.005-.129.15-.265.235-.4l.386.32c-.102.13-.185.319-.301.342zm.49 9.2-.137-.094.155-.053zm6.742-17.241c-.273-.034-.734-.443-.7-.611a3.307 3.307 0 0 1 .631-1.022l.783.9c-.29.317-.532.759-.714.735z" data-name="Caminho 951"></path><g data-name="Grupo 39"><path d="M26.207 30.092c.891-4.053 0-8.322-.164-12.411-.195-4.675-.731-9.959-.089-14.59a1.278 1.278 0 0 0-.905-1.541c-2.01-1.785-7.725.011-9.722-.119-2.311-.15-8.978-1.023-8.041 3.16 0 .023.02.037.026.058-.2 3.371-.1 6.773.038 10.148a7.5 7.5 0 0 0-.289 1.9 1.43 1.43 0 0 0 1.427 1.427c1.773-.121 3.57-.2 5.355-.343.055-.088.109-.179.164-.269l.4.222a46.688 46.688 0 0 0 2.831-.328.686.686 0 0 0 .12-.044.229.229 0 0 0 .036.007c.458 1.042.656 4.878.749 9.015a27.562 27.562 0 0 0-.181 5.576 15.3 15.3 0 0 0-.488 1.654c-.639 2.45-3.714 3.042-4.329-.092-.037-.023-.074-.045-.11-.069l.1.049a5.923 5.923 0 0 1-.095-.793c-.137-2.656.858-5.225.671-7.914a1.074 1.074 0 0 0-.764-1.006 23.293 23.293 0 0 1-2.476-.885.964.964 0 0 0-1.351.712 9.906 9.906 0 0 0-1.594-.244c-.329-.02-.658-.02-.985-.014.092.048.186.1.281.143-.187.13-.391.383-.556.36-.224-.031-.417-.274-.622-.428l.08-.039c-1.643.116-3.262.447-4.922.594a.813.813 0 0 0-.808.807c.237 3.627.255 7.183.228 10.817a28.569 28.569 0 0 0 .015 4.822c-.986 8.684 14.829 5.117 19.7 4.349 7.201-1.133 5.142-9.564 6.27-14.691zm-3.242 12.029.071.229-.181-.024zm-2.536-15.564c.411.34.774.508.767.663a3.013 3.013 0 0 1-.355.937c-.208-.138-.562-.248-.592-.418a4.147 4.147 0 0 1 .18-1.182zM9.072 13.871a3.636 3.636 0 0 1-.87-.894c.3-.187.611-.527.908-.518.268.01.522.4.916.74-.426.312-.82.743-.954.672zm.917-9.295a2.121 2.121 0 0 1-.547-.382c-.047-.062.129-.3.2-.458l.649.312c-.132.236-.212.383-.302.528zm.762 3.974.1-.137.041.163zm2.948-3.571-.009.154-.155-.087zm-.42 1.571c-.016.085-.03.171-.043.258-.078.01-.183.054-.227.019s-.057-.149-.083-.227zm.012 9.44c-.065.04-.235-.095-.357-.15.116-.2.233-.406.366-.643.161.191.34.328.318.392a.806.806 0 0 1-.329.4zm.658-2.084c-.124-.072-.246-.147-.369-.221.057-.061.141-.183.167-.173a3.113 3.113 0 0 1 .395.235zm1.242 2.436-.147.161c.032-.073.063-.148.094-.222.039-.05.082-.1.124-.148q.119-.359.24-.716c.072.057.145.112.216.17l-.456.546c-.027.069-.05.138-.073.208zM7.732 41.303q-.5.614-1.005 1.228c-.1-.138-.306-.372-.28-.4.331-.376.7-.727 1.053-1.081.259-.058.518-.116.777-.176-.181.144-.365.287-.545.429zm7.154 1.185c-.055-.024-.156-.049-.156-.075a.726.726 0 0 1 .061-.225c.057.025.158.051.159.078a.709.709 0 0 1-.064.222z" data-name="Caminho 952"></path><path d="M100.818 3.866a1.829 1.829 0 0 0-.155-.3 1.306 1.306 0 0 0-.707-1.291 9.029 9.029 0 0 0-2.894-.608 8.287 8.287 0 0 0-3.323-.044 1.574 1.574 0 0 0-.2.08c-1.75-.215-3.612.113-5.392.007a18.779 18.779 0 0 0-3.828.19 10.463 10.463 0 0 0-2.811 1.293 1.32 1.32 0 0 0-.614 1.5 17.245 17.245 0 0 1 .457 5.309q-.093 1.016-.246 2.025a32.179 32.179 0 0 0-.979 7.287c-.01.155-.026.308-.039.46-.365-.993-.714-1.964-.991-2.9-1.2-4.054-2.7-8.013-3.982-12.051a1.981 1.981 0 0 0-.016-.507 13.489 13.489 0 0 1-.21-1.755A1.87 1.87 0 0 0 73.069.74a51.882 51.882 0 0 0-8.7.205c.009.014.021.026.029.037l-.2.109-.194-.078.043-.037c-1.351.127-2.692.274-4.006.412a.3.3 0 0 0-.411.056.923.923 0 0 0-.759 1.155 2.847 2.847 0 0 0 .378.974c-1.642 10.834-.308 22.558-.2 33.428.021 2.205-1.187 7.315.6 9.041a5.046 5.046 0 0 0 4.163 1.355 1.623 1.623 0 0 0 1.117-.372 3.4 3.4 0 0 0 .909-.7 1.149 1.149 0 0 0-.119-1.562c.635-3.866.147-8 .456-11.89a96.573 96.573 0 0 0-.473-15.338c-.23.089-.458.181-.685.27-.059-.155-.2-.424-.166-.444a8.463 8.463 0 0 1 .8-.437l-.029-.367c.03.112.063.223.093.335.066.139.128.279.246.538l-.089.035c.694 2.508 1.365 5.036 2.153 7.52a99.134 99.134 0 0 1 2.813 11.765c.424 2.275.407 7.62 2.1 9.306l.012.013c.2-.193.409-.382.613-.575l.093-.189.009.006-.012-.007.009-.166.061.206-.16.15q-.2.391-.392.782c2.113 1.887 4.146.691 6.448-.055a1.418 1.418 0 0 0 1.023-1.345c.006-1.806 1.753-4.745 2.17-6.584.549-2.424.788-4.929 1.223-7.378.656-3.7 1.121-7.442 1.861-11.122-.086 3.067-.215 6.132-.492 9.176-.487 5.361-1.428 11.05.212 16.29a1.429 1.429 0 0 0 1.382 1.052c3.922-.492 8.681-1 12.566-.51a.735.735 0 0 0 .839-.562.937.937 0 0 0 .591-1.136 8.36 8.36 0 0 1-.359-3.838 1.313 1.313 0 0 0 .456-.938 26.337 26.337 0 0 0-.061-3.951c0-5.426.324-10.853.15-16.281-.092-2.821-.409-5.586-.333-8.418.057-2.294.873-4.611-.029-6.81zM63.227 9.95l-.4.307a1.294 1.294 0 0 1 .147-.186 1.489 1.489 0 0 1 .217-.14c.052-.017.106-.03.16-.046a1.666 1.666 0 0 1-.124.065zm1.147-1.717-.272.385.216-.437.237-.416zm.746-3.774.118-.183.08.2zm1.829 15.735c-.057 0-.108-.106-.16-.165.062-.051.124-.146.181-.14s.107.106.159.166c-.061.053-.124.147-.18.142zm1.395 5.744c-.026 0-.043-.11-.065-.167l.383.1a1.14 1.14 0 0 1-.318.07zm.335-8.436-.081-.2.172.007zm2.1 3.275a.73.73 0 0 1-.219-.059c.025-.054.048-.155.074-.155a.755.755 0 0 1 .219.06c-.026.055-.049.154-.074.154zm.141 15.555.117-.16.065.188zm.653-12.686-.059-.166.157.02zm.914 12.847a2.417 2.417 0 0 1-.469-.179c.1-.1.222-.286.3-.272.14.027.256.182.382.283-.073.06-.158.181-.214.168zm.286-9.843a2.194 2.194 0 0 1-.191-.416c-.014-.046.107-.126.164-.19.076.069.205.137.2.18a2.568 2.568 0 0 1-.174.426zm.685-19.04c-.339-.36-.659-.738-.982-1.112l-.128-.073.108.058.009.007-.009-.009 1.358.832c-.126.101-.351.305-.357.297zm3.312 6.681a1.857 1.857 0 0 1-.434-.349c-.053-.081.034-.258.059-.4.194.09.435.129.494.251s-.073.328-.12.498zm1.657 12.2.111-.164.068.187zm1.352-.61-.2-.056c.023-.075.046-.152.071-.229.059.02.167.033.174.065a.612.612 0 0 1-.045.217zm.458 7.6-.046-.153.136.021zm1.73-.545c-.054-.068-.153-.138-.147-.2s.116-.112.182-.167c.055.066.107.133.161.2zm.5-16.185c-.075-.015-.132-.113-.2-.174.082-.036.171-.106.248-.1s.116.11.174.172c-.075.038-.161.115-.225.101zm1.329-7.806.052.159-.153-.025zm-.066 7.194c-.055-.006-.1-.1-.144-.163.06-.046.123-.131.176-.125s.1.1.143.162c-.062.045-.126.131-.178.125zm1.856-5.931.822-.472.864.986c-.242.108-.564.368-.714.291a5.3 5.3 0 0 1-.979-.806zm.225 13.184.231.075c-.009.068.005.17-.032.193a.648.648 0 0 1-.242.048c.011-.107.026-.211.04-.317zm.421 10.7c-.174-.7-.314-1.408-.459-2.115a.647.647 0 0 1-.051-.043.406.406 0 0 0 .048.009l.147-.455c.171.123.346.244.519.366.148.218.415.435.422.657a8.644 8.644 0 0 1-.179 1.589 1.039 1.039 0 0 1-.45-.009zm.524 1.949v.1a.589.589 0 0 0-.05-.083h-.005v-.005l.049-.06c.083 0 .165 0 .249.005-.081.008-.163.027-.246.042zm0-15.869c-.122-.05-.17-.285-.251-.439.149-.033.337-.135.437-.08.148.083.234.277.347.427-.185.039-.392.148-.532.091zm1.346 3.978a5.206 5.206 0 0 1-.5-.673c-.029-.055.164-.232.291-.4a3.421 3.421 0 0 1 .6.6c.033.062-.252.312-.39.473zm.426-2.8-.3-.606c.164-.058.366-.2.481-.149s.168.293.248.452l-.428.303zm.461-19.107-.144-.1.164-.055zm1.006 43.219c-.37-.129-.643-.547-.957-.841.328-.294.717-.876.966-.82.412.088.732.592 1.385 1.191-.727.263-1.128.558-1.393.47zm1.8-17.137c-.051-.056-.141-.118-.136-.17s.1-.1.159-.15c.047.057.1.115.145.172-.053.049-.111.098-.166.148zm1.147 13.7.119-.316.08.25-.197.067zm1.43-16.393-.705-.793.354-.239.481.9.359.49zm.789 2.859h-.25l.256-.056c0-.031.008-.06.011-.092a.489.489 0 0 0 .033.081h.005zm2.032 13.087-.388-.112c.068-.063.126-.15.206-.182.044-.017.124.061.185.1l-.001.195zm.165-4.619c-.124-.085-.361-.234-.355-.243.233-.414.484-.815.735-1.218l.06-.229c.083 0 .163-.006.244-.012l-.207.077-.1.16zm1.573 7.007-.34-.9c-.041-.04-.084-.078-.124-.119v-.209q-.221-.612-.44-1.225c.157-.042.311-.087.467-.131l-.027 1.356.057.155c.021.058.044.115.066.173.246.231.491.466.738.7zm.2-3.979c-.065.024-.251-.281-.381-.434.207-.153.414-.306.619-.461.087.135.176.27.312.477a2.115 2.115 0 0 1-.551.419zm1.059-3.447-.034-.118.05.148.039.109c-.018-.043-.038-.089-.056-.138z" data-name="Caminho 953"></path><path d="M56.079 37.159c-1.793-3.888-.594-9.3-1.014-13.474a105.837 105.837 0 0 1-.237-12.463c.044-3.151.076-6.751-1.283-9.633a1.437 1.437 0 0 0-2.112-.672c-3.208-1.983-5.761-.169-9.294.067-3.832.254-7.768-1.449-11.478.081a1.18 1.18 0 0 0-.85 1.116c.021.245.035.42.049.569a20.93 20.93 0 0 0-1.017 5.524l.017.033a.186.186 0 0 1-.02.01c-.205 3.311.106 6.724.153 9.917.1 6.745-1.015 13.751-1.468 20.5-.129 1.882-1.653 7.413 1.367 8.02 3.94.793 7.961-.481 11.912-.891a17.97 17.97 0 0 0 2.98-.045 1.02 1.02 0 0 0 1.466-.906c-.186-2.005-.33-4.006-.354-6.02-.016-1.338-.366-3.588 1.554-3.644a20.16 20.16 0 0 1 2.119.046c-.562 1.67-.111 3.649.426 5.58a11.394 11.394 0 0 0 .927 4.872c-.094 1.153 1.255 1.393 1.935.764a14.169 14.169 0 0 1 4.245-.616 1.138 1.138 0 0 0 1.128-1.125c-.051-2.319-.174-5.489-1.151-7.61zM32.136 25.117a1.607 1.607 0 0 1 .318.225c.03.032-.027.215-.056.218a2.276 2.276 0 0 1-.383-.032c.04-.138.08-.278.121-.411zm-2.178 19.14c-.047-.205-.261-.585-.153-.741a41.35 41.35 0 0 1 2.559-3.325 1.3 1.3 0 0 1 1.058.359c.357.943-2.165 3.793-3.464 3.707zm5.74-12.555.015-.14.139.088zm3.493-19.3c-.077-.147-.218-.294-.212-.437s.163-.269.259-.412c.08.151.221.3.215.44s-.169.273-.262.41zm2.3 26.272-.167-.1.183-.072zm.547-1.174-.054-.178.161.028zm2.661-.9-.088.035.13-.082zm8.361-.438.063.164-.162-.02zm-8.019-21.695c-.04-.2-.178-.475-.1-.575a1.823 1.823 0 0 1 .636-.335l.107.507zm3.565 14.106v1.433l-.911.9h-2.25v-5.5l.156-2.5 2.037-.091.8.434.169 1.617zm.061-6.259c-.1-.18-.2-.359-.294-.54.165-.058.337-.175.492-.153.091.012.154.239.232.37-.138.113-.282.22-.426.325zm1.718-19.035a4.99 4.99 0 0 1-.868-.567l.56-.767a4.7 4.7 0 0 1 .728.833c.045.08-.35.53-.416.503zm1.649 41.581a1.978 1.978 0 0 1-.206-.365c-.014-.043.116-.191.15-.182a2.855 2.855 0 0 1 .445.214zm1.091-1.475c-.731-.043-1.457-.158-2.4-.272.375-.334.669-.788.884-.754a12.67 12.67 0 0 1 1.967.631c-.146.141-.305.406-.447.397z" data-name="Caminho 954"></path></g></g></svg>